<?xml version="1.0" encoding="UTF-8" standalone="no"?>
<svg xmlns:rdf="http://www.w3.org/1999/02/22-rdf-syntax-ns#" xmlns="http://www.w3.org/2000/svg" height="731.56" viewBox="0 0 800 731.56152" width="800" version="1.1" xmlns:cc="http://creativecommons.org/ns#" xmlns:dc="http://purl.org/dc/elements/1.1/">
<path d="m388.67 729.67c-9.5321-3.0986-19.823-9.3323-39.147-23.714-25.733-19.151-25.297-19.002-58.932-20.234-44.993-1.6484-49.381-5.1826-62.214-50.113-8.96-31.36-12.14-34.79-117.28-126.38-105.34-91.75-136.71-167.11-90.09-216.4l8.5081-8.9961-1.8104-8.4418c-8.736-40.73 13.194-73.64 60.584-90.92 14.259-5.1987 14.266-5.2066 16.808-19.1 6.9872-38.191 43.762-67.001 85.527-67.001 5.3102 0 5.938-0.63941 11.319-11.528 22.503-45.534 59.177-63.681 106.58-52.739l8.2647 1.9077 11.301-10.255c37.295-33.842 81.665-34.351 122.47-1.4038l13.453 10.861 7.1693-2.5561c35.24-12.564 74.038 5.3149 99.233 45.728l7.1963 11.543 13.399-0.96705c41.144-2.9696 73.981 24.349 97.521 81.135 2.5862 6.2384 5.8596 11.732 7.2743 12.208 40.612 13.664 67.919 52.53 67.919 96.672 0 8.6941 0.00044 8.6948 12.999 21.163 50.048 48.005 23.709 102.11-121.66 249.93-48.911 49.733-49.064 49.931-60.771 78.276-20.723 50.173-28.992 56.376-75.405 56.555-31.611 0.12209-29.623-0.49951-54.593 17.072-37.118 26.121-57.504 33.587-75.626 27.696zm34.793-15.624c6.7562-3.4962 15.544-8.5728 19.528-11.281 46.388-31.539 59.355-40.723 59.355-42.041 0-3.1757-20.39-21.483-31.914-28.655-50.601-31.49-123.07-24.027-157.45 16.215-10.438 12.218-10.755 11.755 23.67 34.553 6.7315 4.4578 19.029 13.26 27.329 19.561 26.066 19.79 38.893 22.302 59.48 11.649zm-125.81-39.342 7.5288-1.0319-17.638-13.342c-9.7007-7.3384-25.268-19.589-34.595-27.224-9.3263-7.6347-16.957-13.347-16.957-12.693 0 4.086 10.716 37.186 13.494 41.681 6.7974 10.999 25.053 15.778 48.166 12.61zm249.94-2.4116c9.9391-2.7598 20.205-13.462 27.536-28.704 6.8644-14.274 13.59-30.717 12.563-30.717-0.34359 0-15.893 11.433-34.555 25.407s-36.609 27.063-39.882 29.086c-3.2738 2.0233-5.9523 4.3625-5.9523 5.1982 0 2.1113 32.499 1.8938 40.291-0.26974zm-15.68-30.89c60.043-43.746 162.34-139.06 162.34-151.26 0-11.091-15.413-22.87-29.926-22.87h-7.7188l-14.56 19.438c-41.387 55.252-79.619 98.624-119.02 135.02-23.524 21.73-22.401 19.796-15.577 26.836 6.7758 6.9909 3.8593 7.8452 24.462-7.1653zm-228.91-0.55c0-0.56869-8.9334-8.4926-19.852-17.609-50-41.74-115.17-109.91-144-150.63-7.0944-10.02-22.904-8.5274-33.189 3.1331-6.8821 7.8023-6.5092 8.5616 12.236 24.919 23.255 20.292 77.024 68.427 93.913 84.072 16.034 14.853 42.361 36.941 65.473 54.932l16.87 13.132 4.2704-5.4565c2.3487-3.0011 4.2704-5.9218 4.2704-6.4906zm211.07-23.86c47.57-42.52 137.16-149.75 134.47-160.94-4.8-19.99-18.27-29.21-41.14-28.18l-11.58 0.52393-14.551 28.124c-30.12 58.214-61.977 109.08-90.39 144.34-14.213 17.635-16.866 21.922-13.569 21.922 0.78642 0 4.6948 2.5648 8.6853 5.6995 8.9185 7.006 6.1006 8.159 28.08-11.49zm-196.72 11.25c3.0269-2.4565 5.7785-4.6546 6.1146-4.8848 0.33608-0.2301-5.2-7.3398-12.302-15.799-37.556-44.732-74.003-99.799-103.94-157.04-13.547-25.901-13.934-26.274-27.26-26.245-14.977 0.0318-30.46 12.112-35.685 27.843l-2.8026 8.4377 12.798 16.183c37.015 46.803 90.969 102.58 133.67 138.19 24.172 20.158 22.126 19.232 29.413 13.318zm22.662-37.295c-23.63-52.82-44.1-104.56-62.69-158.42l-11.136-32.26-6.406-2.2393c-21.028-7.3504-40.969-0.15402-54.104 19.525-7.2118 10.805 65.258 128.19 115.32 186.79l11.374 13.315 7.9876-4.0476 7.9876-4.0476-8.33-18.622zm154.02-10.351c29.055-38.843 56.209-83.488 81.605-134.17l10.723-21.399-3.3142-6.5878c-7.898-15.699-21.216-22.332-38.445-19.147-13.522 2.4998-15.089 3.8286-19.171 16.265-14.697 44.773-40.554 107.66-65.232 158.65-8.6683 17.911-15.572 32.747-15.341 32.968 0.23068 0.2209 4.8861 2.2645 10.345 4.5414l9.926 4.1398 6.4088-6.8792c3.5248-3.7836 13.648-16.557 22.496-28.386zm-123.06 22.266 3.4528-1.3002-4.5446-27.854c-5.6145-34.41-13.017-89.854-19.843-148.62-5.8251-50.151-4.9392-47.846-20.291-52.804-19.071-6.1591-49.299 6.827-53.336 22.914-1.8092 7.2086 41.201 122.04 69.624 185.88l11.264 25.302 5.1105-1.1109c2.8108-0.61103 6.6643-1.696 8.5633-2.4111zm72.87-16.89c23.767-47.309 52.549-115.26 69.098-163.12l7.6372-22.09-5.9729-8.1368c-14.877-20.267-38.418-26.699-59.495-16.256l-8.1816 4.0537-2.0147 19.025c-7.1389 67.412-17.986 139.25-27.067 179.25-2.6776 11.794-4.674 21.622-4.4366 21.84 0.33901 0.31092 12.646 2.7004 19.856 3.8555 0.6748 0.10803 5.4344-8.1786 10.577-18.415zm-36.83-2.6c9.954-42.45 19.227-100.52 25.805-161.6 1.8617-17.288 3.7015-33.828 4.0884-36.755 1.6195-12.255-23.781-31.087-41.583-30.83-17.678 0.25554-42.415 16.767-40.915 27.311 0.43287 3.0431 3.3578 27.607 6.4999 54.587 7.7333 66.402 20.314 155.01 23.158 163.12 0.46076 1.3124 4.0186 2.0679 9.7382 2.0679h9.0122l4.1965-17.896zm316.39-122.22c21.351-24.921 32.275-38.412 39.094-48.283l5.0105-7.2528-2.7642-8.7691c-4.6224-14.664-23.885-28.837-39.193-28.837-3.94 0-5.8134 2.1358-14.874 16.957-5.7016 9.3263-18.43 29.085-28.284 43.909-20.313 30.556-19.319 28.468-13.56 28.468 12.208 0 27.809 9.6434 32.01 19.786 2.93 7.0737 2.6273 7.2881 22.561-15.978zm-612.39-1.54c4.5977-2.141 9.6623-3.8999 11.255-3.9088 4.0289-0.0225 4.0255-0.0303-6.7441-15.3-10.592-15.018-32.252-49.505-43.588-69.4l-7.2478-12.721-6.6356 2.9708c-12.639 5.6587-22.6 20.466-26.302 39.098-1.4859 7.4792 11.338 25.194 43.471 60.052l15.785 17.124 5.8238-7.0111c3.2816-3.9506 9.473-8.7104 14.183-10.904zm26.496-18.679c7.012-15.55 21.465-25.209 39.352-26.298 6.1417-0.37403 11.167-0.86456 11.167-1.0901 0-0.22551-3.6542-8.2158-8.1204-17.756-11.443-24.444-25.582-57.792-35.896-84.665-10.538-27.457-7.9836-24.666-19.799-21.632-29.631 7.6082-46.199 24.248-50.782 51.003l-1.804 10.532 9.6755 17.176c34.05 60.446 51.541 83.079 56.207 72.732zm542.38-25.362c28.877-44.49 35.877-57.093 35.877-64.59 0-27.228-18.696-52.034-45.134-59.886-13.561-4.0273-12.397-5.311-26.66 29.4-7.1856 17.488-19.542 46.028-27.458 63.422l-14.393 31.626 12.018 0.90893c19.669 1.4875 32.837 9.4892 40.574 24.655l3.3388 6.5446 4.8781-6.7341c2.683-3.7037 10.314-15.11 16.959-25.347zm-74.85-29.51c12.578-27.42 31.186-70.498 39.42-91.258 13.537-34.132-14.231-69.17-55.236-69.698-18.828-0.24229-16.637-2.7993-21.538 25.141-7.3393 41.841-16.569 80.989-29.082 123.35-2.6553 8.9897-4.8278 16.459-4.8278 16.598 0 0.13913 5.025-0.43936 11.167-1.2854 18.836-2.5947 36.245 4.7969 44.596 18.935 1.5357 2.5997 3.02 4.4988 3.2985 4.2203 0.27852-0.27853 5.77-11.981 12.203-26.005zm-402.96 18.286c9.0335-13.676 31.204-22.04 49.588-18.708 10.42 1.8887 10.569 1.6718 6.5556-9.5657-4.8327-13.533-26.737-91.491-33.99-120.97l-7.2243-29.365h-8.5581c-37.916 0-72.723 36.509-62.037 65.069 16.917 45.216 48.735 118.57 51.423 118.56 0.5139-0.003 2.4233-2.2588 4.243-5.0139zm579.22-24.346c6.8426-16.283 6.9714-43.072 0.27232-56.661-3.8909-7.8924-21.668-25.259-23.464-22.923-0.24908 0.32397-5.5288 10.267-11.733 22.095-6.2039 11.829-13.027 24.283-15.163 27.677-4.7089 7.483-4.7418 7.891-0.63659 7.891 12.056 0 36.696 16.719 41.409 28.096 2.9429 7.1048 4.0402 6.3774 9.3156-6.1757zm-754.69 0.46008c3.6526-9.5641 15.238-22.387 24.819-27.47 9.2197-4.8911 9.5402-1.8144-2.9352-28.179-5.765-12.183-11.207-23.943-12.093-26.134l-1.6109-3.982-6.3169 6.3169c-16.968 16.968-21.343 43.567-11.902 72.37 5.451 16.63 6.1911 17.152 10.039 7.0774zm514.58-52.22c19.956-78.286 23.228-104.89 14.54-118.22-17.085-26.211-41.754-38.817-76.034-38.857l-16.856-0.0196-0.82476 7.0309c-0.4536 3.867-2.4075 32.342-4.342 63.278s-4.8402 71.509-6.4571 90.161c-3.4525 39.827-4.2802 35.175 5.7081 32.081 21.864-6.7727 44.506-1.1142 60.306 15.071l7.4445 7.6259 4.5589-14.568c2.5074-8.0125 7.8873-27.625 11.955-43.584zm-247.71 36.23c10.523-5.1344 28.407-6.1411 40.1-2.2572 10.584 3.5155 9.9091 5.1991 7.2943-18.192-1.2205-10.919-5.6699-54.097-9.8875-95.952-4.7659-47.297-8.3842-76.56-9.5596-77.315-2.9-1.8637-27.946-1.4912-37.792 0.5621-21.637 4.5122-43.156 20.401-53.255 39.322l-4.7454 8.8908 3.7591 16.751c6.9654 31.04 37.444 139.74 40.733 145.28 0.37356 0.62859 4.0125-2.0967 8.0865-6.0562s10.943-8.9245 15.265-11.033zm149.96-51.881c1.4385-18.198 4.1819-57.942 6.0965-88.321l3.481-55.234-4.7047-3.8994c-29.486-24.439-70.497-25.88-106.48-3.7418-10.161 6.252-9.9688 0.27837-2.4493 76.178 13.744 138.73 11.12 125.53 23.331 117.39 23.925-15.939 48.619-14.672 69.309 3.556l6.6174 5.8295 1.0897-9.337c0.59937-5.1354 2.2667-24.226 3.7052-42.424zm297.27 0.82717c22.85-42.548 7.385-94.369-34.066-114.15-14.3-6.8249-14.232-6.8553-19.574 8.6886-2.5799 7.5061-9.1844 25.778-14.677 40.605-5.4923 14.827-9.5628 27.381-9.0455 27.898 0.51733 0.51731 5.8385 2.652 11.825 4.7438 25.189 8.8016 41.486 24.978 48.04 47.684 3.352 11.614 2.5951 12.283 17.498-15.468zm-669.85 2.0511c8.31-17.099 25.715-29.962 48.614-35.927 5.214-1.3581 9.7898-2.779 10.168-3.1576 0.3786-0.37859-3.8562-14.721-9.4107-31.871-5.5545-17.151-11.246-35.65-12.647-41.109-3.3872-13.194-3.4079-13.204-16.301-8.3516-50.796 19.12-64.925 52.487-44.053 104.04 10.9 26.919 15.496 35.179 17.119 30.76 0.81235-2.2126 3.7418-8.6833 6.51-14.379zm81.26-76.25c12.613-13.178 27.717-20.319 49.988-23.631 10.258-1.5256 12.333-2.3331 11.678-4.5427-1.8123-6.1087-14.033-71.657-15.999-85.818l-2.1252-15.303h-7.6077c-37.284 0-67.288 25.995-73.085 63.318-2.3136 14.897-2.207 15.453 11.057 57.689 10.834 34.496 10.081 33.427 15.957 22.677 2.6621-4.8701 7.2238-11.345 10.137-14.389zm523.25-27.663 7.9654-23.271-4.6163-12.657c-18.72-51.32-56.41-81.742-92.82-74.91l-5.8007 1.0882v24.474c0 21.869-3.3692 68.225-5.9959 82.494l-0.98969 5.3766h13.071c31.374 0 53.864 12.998 65.585 37.904l4.9918 10.607 5.3203-13.916c2.9262-7.6538 8.9047-24.388 13.286-37.187zm-106.97-37.96c1.0642-12.728 2.0846-34.309 2.2675-47.958l0.33255-24.815-7.2203-12.188c-22.549-38.065-56.866-56.023-87.569-45.825l-8.324 2.7648-0.92521 13.562c-0.50886 7.4593-1.3354 26.59-1.8366 42.513-0.50129 15.923-1.351 35.651-1.8883 43.84l-0.97685 14.889 18.802 0.10641c34.108 0.19304 68.648 17.043 81.308 39.666 2.693 4.8121 3.8248-0.17169 6.0308-26.555zm-341.88 22.554c13.167-22.289 44.839-37.36 78.55-37.376 9.3263-0.005 16.963-0.38955 16.971-0.85556 0.0705-4.2458-8.6588-100.03-9.5749-105.06-1.1473-6.3021-1.5839-6.6953-9.4692-8.5265-42.13-9.7837-79.836 13.311-95.854 58.71-2.4375 6.9087 1.4786 36.105 10.853 80.912 3.8734 18.514 4.3711 19.226 8.5239 12.196zm146.79-59.099c24.337-5.1584 49.396-0.77693 70.429 12.314 10.766 6.7007 9.9767 9.9467 12.2-50.196l1.9568-52.939-10.81-10.118c-36.45-34.105-78.17-33.4-116.53 1.976l-8.8377 8.1488 4.2828 48.803c2.3555 26.842 4.6784 51.154 5.1618 54.028l0.87905 5.2246 14.429-7.3022c8.1265-4.1127 19.849-8.4509 26.837-9.9321z"/>
</svg>
